<?xml version="1.0" standalone="no"?><!DOCTYPE svg PUBLIC "-//W3C//DTD SVG 1.1//EN" "http://www.w3.org/Graphics/SVG/1.1/DTD/svg11.dtd"><svg t="1584609008954" class="icon" viewBox="0 0 1024 1024" version="1.1" xmlns="http://www.w3.org/2000/svg" p-id="2637" xmlns:xlink="http://www.w3.org/1999/xlink" width="200" height="200"><defs><style type="text/css">@font-face { font-family: element-icons; src: url("chrome-extension://moombeodfomdpjnpocobemoiaemednkg/fonts/element-icons.woff") format("woff"), url("chrome-extension://moombeodfomdpjnpocobemoiaemednkg/fonts/element-icons.ttf ") format("truetype"); }
</style></defs><path d="M511.11 511.3m-418.01 0a418.01 418.01 0 1 0 836.02 0 418.01 418.01 0 1 0-836.02 0Z" fill="#FFBABF" p-id="2638"></path><path d="M511.11 953.19c-243.67 0-441.89-198.23-441.89-441.89S267.44 69.4 511.11 69.4 953 267.63 953 511.3 754.77 953.19 511.11 953.19z m0-836.01c-217.31 0-394.12 176.8-394.12 394.12S293.8 905.42 511.11 905.42s394.12-176.8 394.12-394.12-176.82-394.12-394.12-394.12z" fill="#006360" p-id="2639"></path><path d="M103.54 419.46c44.83 16.42 93.04 25.84 143.56 25.84 199.26 0 365.67-139.55 407.56-326.17-44.83-16.42-93.04-25.84-143.56-25.84-199.26 0-365.66 139.55-407.56 326.17z" fill="#48D3C4" p-id="2640"></path><path d="M247.1 469.18c-51.27 0-102.33-9.18-151.76-27.29-11.27-4.13-17.73-15.96-15.09-27.67C125.82 211.21 302.99 69.4 511.11 69.4c51.22 0 102.29 9.18 151.76 27.29 11.27 4.12 17.73 15.96 15.09 27.67-45.58 203.02-222.74 344.82-430.86 344.82zM132.12 403.9c37.74 11.63 76.32 17.51 114.98 17.51 178.4 0 331.3-116.84 379.01-286.72-37.77-11.63-76.35-17.52-115-17.52-175.46 0.01-331.52 119.36-378.99 286.73z" fill="#006360" p-id="2641"></path><path d="M446.49 923.81c21.11 3.28 42.58 5.5 64.61 5.5 221.58 0 402.4-172.53 416.62-390.51-21.11-3.28-42.58-5.5-64.61-5.5-221.57 0-402.39 172.53-416.62 390.51z" fill="#71E0FF" p-id="2642"></path><path d="M511.11 953.19c-20.9 0-43.25-1.89-68.28-5.77-12.22-1.9-20.97-12.82-20.18-25.16 15.12-231.51 208.58-412.85 440.47-412.85 20.92 0 43.27 1.89 68.28 5.78 12.2 1.91 20.95 12.82 20.15 25.16-15.09 231.5-208.56 412.84-440.44 412.84z m-38.7-50c13.74 1.5 26.36 2.23 38.7 2.23 199.32 0 366.81-150.26 390.69-345.99-13.74-1.52-26.52-2.25-38.68-2.25-199.3 0-366.8 150.27-390.71 346.01z" fill="#006360" p-id="2643"></path></svg>